<?xml version="1.0" standalone="no"?>
<!DOCTYPE svg PUBLIC "-//W3C//DTD SVG 20010904//EN"
 "http://www.w3.org/TR/2001/REC-SVG-20010904/DTD/svg10.dtd">
<svg version="1.0" xmlns="http://www.w3.org/2000/svg"
 width="512.000000pt" height="512.000000pt" viewBox="0 0 512.000000 512.000000"
 preserveAspectRatio="xMidYMid meet">

<g transform="translate(0.000000,512.000000) scale(0.100000,-0.100000)"
fill="#000000" stroke="none">
<path d="M1904 5110 c-580 -76 -1047 -510 -1171 -1090 -17 -78 -18 -149 -18
-895 0 -736 2 -817 18 -892 58 -268 172 -484 359 -679 196 -203 426 -331 713
-397 85 -19 127 -21 788 -24 l697 -4 0 -104 c0 -95 2 -106 23 -131 28 -33 76
-37 107 -9 20 18 20 28 20 1510 0 1295 -2 1504 -15 1581 -67 388 -296 729
-630 939 l-88 55 206 0 c221 0 316 -9 442 -42 256 -67 502 -233 665 -450 56
-74 170 -286 170 -315 0 -9 -20 -13 -70 -13 -62 0 -74 -3 -95 -25 -14 -13 -25
-36 -25 -50 0 -14 11 -37 25 -50 22 -23 32 -25 118 -25 l95 0 11 -75 c6 -42
11 -80 11 -84 0 -5 -28 -11 -61 -13 -49 -4 -66 -9 -80 -27 -25 -30 -24 -62 2
-95 18 -23 28 -26 80 -26 l59 0 0 -84 0 -83 -57 -6 c-46 -5 -63 -12 -80 -32
-54 -62 -8 -125 92 -125 l45 0 0 -85 0 -85 -55 0 c-46 0 -60 -4 -80 -25 -14
-13 -25 -36 -25 -50 0 -14 11 -37 25 -50 20 -21 34 -25 80 -25 l55 0 0 -84 0
-84 -111 -4 c-102 -3 -112 -5 -130 -27 -26 -32 -24 -73 4 -99 21 -20 34 -22
130 -22 l107 0 0 -84 0 -83 -57 -6 c-46 -5 -63 -12 -80 -32 -54 -62 -8 -125
92 -125 l45 0 0 -85 0 -85 -55 0 c-46 0 -60 -4 -80 -25 -32 -31 -32 -69 0
-100 20 -21 34 -25 80 -25 l55 0 0 -85 0 -85 -55 0 c-46 0 -60 -4 -80 -25 -30
-30 -32 -64 -4 -99 18 -23 28 -26 80 -26 l59 0 0 -85 0 -85 -83 0 c-126 0
-176 -21 -177 -77 -1 -64 37 -83 165 -83 l95 0 0 -85 0 -85 -59 0 c-52 0 -62
-3 -80 -26 -28 -35 -26 -69 4 -99 20 -21 34 -25 80 -25 l55 0 0 -85 0 -85 -55
0 c-46 0 -60 -4 -80 -25 -30 -30 -32 -64 -4 -99 18 -23 28 -26 80 -26 l59 0 0
-150 0 -150 -90 0 -90 0 -19 38 c-73 142 -264 169 -378 52 -17 -18 -37 -45
-44 -61 l-12 -30 -91 3 -91 3 -5 78 c-4 63 -9 82 -24 93 -29 21 -80 18 -102
-7 -18 -20 -19 -40 -19 -311 l0 -290 24 -19 c22 -18 46 -19 531 -19 499 0 508
0 534 21 l26 21 -3 1956 c-2 1842 -4 1961 -21 2032 -65 272 -184 493 -368 678
-224 227 -497 362 -810 402 -96 12 -1211 12 -1304 0z m321 -151 c264 -32 501
-148 695 -339 196 -193 313 -413 355 -670 22 -138 22 -1509 0 -1646 -81 -500
-459 -889 -970 -1000 -110 -23 -350 -23 -460 0 -513 111 -882 491 -970 1000
-22 131 -22 1505 0 1646 42 257 159 477 355 670 268 264 622 385 995 339z
m1065 -3389 l0 -290 -292 0 -292 0 72 44 c198 123 369 295 474 478 18 32 34
58 36 58 1 0 2 -130 2 -290z m605 -1096 c19 -8 45 -55 45 -84 0 -11 11 -32 25
-45 23 -24 29 -25 160 -25 l135 0 0 -85 0 -85 -410 0 -410 0 0 85 0 85 130 0
c73 0 140 5 153 11 26 12 47 47 47 80 0 47 71 83 125 63z"/>
<path d="M1943 4790 c-425 -60 -771 -365 -879 -776 -22 -84 -27 -127 -31 -281
l-5 -181 25 -26 c31 -31 65 -33 99 -6 25 19 26 23 31 192 6 201 26 298 87 423
49 101 93 163 177 248 120 121 277 207 444 242 95 21 272 21 366 1 332 -71
588 -315 684 -652 22 -78 23 -87 26 -802 4 -786 3 -818 -52 -975 -44 -126
-101 -213 -210 -322 -183 -183 -378 -265 -630 -265 -246 0 -446 82 -620 255
-103 102 -154 174 -200 284 -66 156 -68 171 -72 661 -4 436 -5 445 -25 468
-29 30 -72 29 -104 -3 l-25 -25 3 -458 c4 -456 4 -457 30 -552 64 -233 196
-432 381 -571 94 -71 248 -148 357 -178 311 -85 644 -20 908 179 186 140 324
351 384 586 23 89 23 92 23 874 l0 785 -27 99 c-107 387 -416 681 -803 762
-88 19 -260 26 -342 14z"/>
<path d="M1892 4450 c-123 -32 -225 -93 -322 -190 -94 -94 -139 -163 -176
-269 -43 -122 -45 -185 -41 -921 4 -750 2 -727 58 -856 89 -203 295 -375 504
-419 90 -19 230 -19 320 0 164 35 343 159 438 303 82 124 114 224 124 381 5
92 5 98 -18 123 -35 40 -70 45 -104 15 -27 -23 -29 -30 -36 -138 -4 -63 -14
-133 -23 -157 -64 -176 -202 -312 -371 -365 -98 -31 -242 -31 -340 0 -181 57
-332 216 -380 399 -23 87 -23 1451 0 1538 65 248 295 426 550 426 91 0 158
-16 252 -61 132 -63 228 -173 290 -331 15 -38 18 -104 23 -545 5 -501 5 -503
27 -524 31 -32 80 -30 110 5 l23 27 0 452 c0 267 -4 479 -11 517 -46 287 -257
519 -536 591 -101 25 -260 25 -361 -1z"/>
<path d="M1965 4137 c-113 -38 -204 -115 -249 -211 -14 -30 -30 -85 -36 -123
-12 -87 -13 -1253 0 -1350 18 -138 102 -254 230 -316 60 -29 73 -32 165 -32
93 0 105 2 166 32 125 62 209 176 229 310 13 90 13 1267 0 1356 -20 139 -102
251 -227 309 -56 27 -82 33 -153 35 -52 2 -101 -2 -125 -10z m181 -152 c66
-19 126 -72 153 -135 21 -50 22 -51 19 -737 l-3 -688 -28 -48 c-96 -163 -328
-163 -424 0 l-28 48 0 700 0 700 22 42 c29 53 86 100 143 118 59 18 86 18 146
0z"/>
</g>
</svg>
