<?xml version="1.0" standalone="no"?>
<!DOCTYPE svg PUBLIC "-//W3C//DTD SVG 20010904//EN"
 "http://www.w3.org/TR/2001/REC-SVG-20010904/DTD/svg10.dtd">
<svg version="1.0" xmlns="http://www.w3.org/2000/svg"
 width="512.000000pt" height="512.000000pt" viewBox="0 0 512.000000 512.000000"
 preserveAspectRatio="xMidYMid meet">

<g transform="translate(0.000000,512.000000) scale(0.100000,-0.100000)"
fill="#f5f5f5" stroke="none">
<path d="M1866 4579 c-332 -43 -640 -168 -775 -314 -47 -51 -51 -73 -18 -109
39 -44 70 -39 144 24 100 86 281 169 463 211 109 26 269 49 341 49 67 0 116
15 129 40 16 30 12 68 -10 90 -17 17 -32 20 -112 19 -51 -1 -124 -6 -162 -10z"/>
<path d="M2991 4564 c-24 -31 -26 -43 -10 -78 15 -33 50 -43 179 -50 274 -16
576 -114 724 -234 87 -70 112 -82 147 -70 33 11 49 35 49 72 0 66 -208 208
-410 280 -165 60 -419 106 -580 106 -73 0 -80 -2 -99 -26z"/>
<path d="M1595 4092 c-156 -54 -266 -178 -295 -332 -13 -68 -13 -332 0 -400
29 -151 141 -280 288 -331 72 -25 198 -27 268 -4 119 40 208 119 263 235 l36
75 0 225 0 225 -31 65 c-17 36 -39 73 -48 83 -25 25 -78 22 -104 -6 -28 -30
-28 -55 3 -113 14 -26 25 -58 25 -70 0 -21 -5 -24 -37 -25 -21 -1 -51 0 -68 1
-96 6 -190 97 -210 202 -7 35 -6 35 34 42 23 3 50 15 61 26 26 26 26 74 0 100
-26 26 -114 27 -185 2z m-16 -321 c67 -130 243 -224 384 -205 l47 6 0 -84 c0
-102 -19 -170 -62 -222 -35 -43 -112 -96 -139 -96 -14 0 -13 6 7 47 71 139
-18 308 -179 337 -46 9 -132 -14 -172 -46 l-27 -21 4 129 c5 138 16 178 65
242 l26 35 12 -39 c6 -21 22 -59 34 -83z m86 -396 c51 -50 17 -135 -55 -135
-55 0 -85 27 -85 80 0 32 6 47 24 61 33 27 86 25 116 -6z"/>
<path d="M3266 4089 c-72 -25 -128 -62 -183 -122 -90 -98 -113 -180 -113 -407
0 -231 23 -310 118 -413 90 -95 187 -138 318 -138 163 0 302 81 379 222 46 85
55 138 55 324 0 250 -27 333 -146 445 -83 78 -148 103 -274 107 -76 3 -107 -1
-154 -18z m259 -153 c60 -28 130 -103 147 -158 15 -50 5 -59 -65 -59 -123 0
-220 81 -242 204 l-7 37 58 0 c41 0 75 -8 109 -24z m-253 -186 c70 -116 193
-182 337 -183 l83 -1 -4 -100 c-5 -111 -28 -175 -85 -227 -36 -35 -94 -69
-114 -69 -14 0 -13 7 7 47 78 153 -37 336 -211 336 -59 0 -109 -17 -147 -51
-17 -14 -18 -9 -18 95 0 127 15 190 61 253 l32 44 13 -44 c7 -25 28 -70 46
-100z m73 -375 c31 -30 32 -73 4 -109 -45 -57 -149 -19 -149 54 0 71 94 107
145 55z"/>
<path d="M2425 2809 c-118 -41 -255 -152 -255 -205 0 -32 42 -74 73 -74 14 0
51 22 88 52 93 74 149 98 234 98 85 0 161 -32 243 -104 33 -28 63 -46 78 -46
33 0 74 42 74 77 0 41 -98 130 -196 178 -74 37 -86 40 -179 42 -82 3 -111 0
-160 -18z"/>
<path d="M513 2110 c-59 -12 -96 -34 -135 -80 -32 -37 -58 -96 -58 -132 0 -11
-18 -17 -70 -22 -94 -8 -143 -30 -188 -82 -69 -77 -80 -166 -33 -259 29 -57
29 -59 12 -84 -26 -37 -41 -88 -41 -135 0 -53 38 -135 80 -169 l32 -27 -16
-40 c-54 -135 56 -310 194 -310 26 0 30 -4 30 -27 0 -71 72 -168 147 -200 48
-20 4138 -20 4186 0 75 32 147 129 147 200 0 23 4 27 30 27 137 0 249 177 195
307 -15 36 -15 37 19 72 85 87 99 210 35 302 -17 25 -17 27 12 84 47 93 36
182 -33 259 -45 52 -94 74 -188 82 -52 5 -70 11 -70 22 0 37 -27 97 -62 136
-59 68 -96 79 -290 84 -92 2 -183 1 -203 -2 -82 -16 -104 -106 -34 -141 21
-12 70 -15 207 -15 157 0 182 -2 200 -17 11 -10 23 -27 26 -39 6 -20 2 -21
-67 -27 -88 -6 -139 -29 -190 -86 -65 -72 -75 -193 -22 -273 25 -37 25 -41 10
-58 -24 -26 -44 -88 -45 -134 0 -61 20 -114 65 -165 40 -45 40 -47 29 -81 -49
-138 41 -287 189 -314 20 -4 37 -9 37 -12 0 -15 -32 -62 -45 -68 -22 -8 -4068
-8 -4090 0 -13 6 -45 53 -45 68 0 3 17 8 38 12 146 27 237 177 188 314 -11 34
-11 36 29 81 45 51 65 104 65 165 -1 46 -21 108 -45 134 -15 17 -15 21 10 58
53 80 43 201 -22 273 -52 57 -104 81 -190 87 -40 2 -73 7 -73 9 0 14 32 62 45
67 9 3 781 6 1716 6 1501 0 1703 2 1729 15 32 17 46 51 36 91 -15 57 74 54
-1758 53 -926 -1 -1702 -5 -1725 -9z m98 -409 c18 -14 24 -29 24 -61 0 -32 -6
-47 -24 -61 -21 -17 -42 -19 -216 -19 -218 0 -231 4 -241 72 -5 30 -2 41 19
62 l26 26 194 0 c176 0 197 -2 218 -19z m4330 0 c18 -14 24 -29 24 -61 0 -32
-6 -47 -24 -61 -21 -17 -42 -19 -216 -19 -174 0 -195 2 -216 19 -18 14 -24 29
-24 61 0 32 6 47 24 61 21 17 42 19 216 19 174 0 195 -2 216 -19z m-4330 -320
c18 -14 24 -29 24 -61 0 -32 -6 -47 -24 -61 -21 -17 -42 -19 -216 -19 -218 0
-231 4 -241 72 -5 30 -2 41 19 62 l26 26 194 0 c176 0 197 -2 218 -19z m4336
-7 c21 -21 24 -32 19 -62 -10 -68 -23 -72 -241 -72 -174 0 -195 2 -216 19 -18
14 -24 29 -24 61 0 32 6 47 24 61 21 17 42 19 218 19 l194 0 26 -26z m-4420
-309 c42 -30 34 -121 -12 -139 -22 -8 -218 -8 -240 0 -25 10 -47 62 -40 95 11
50 37 59 160 59 82 0 116 -4 132 -15z m4330 0 c42 -30 34 -121 -12 -139 -22
-8 -218 -8 -240 0 -25 10 -47 62 -40 95 11 50 37 59 160 59 82 0 116 -4 132
-15z"/>
<path d="M1204 1656 c-91 -42 -141 -141 -115 -226 21 -69 72 -112 191 -159 57
-23 113 -49 122 -58 41 -37 9 -91 -60 -100 -50 -7 -100 10 -148 48 -48 38 -94
39 -123 3 -43 -55 -14 -108 89 -163 103 -55 231 -55 311 -1 65 43 92 90 97
166 4 55 1 69 -22 109 -34 57 -74 84 -203 136 -90 36 -103 44 -103 65 0 14 10
30 25 40 34 22 88 14 160 -22 52 -27 58 -28 83 -13 64 35 61 100 -6 143 -96
60 -211 73 -298 32z"/>
<path d="M1893 1666 c-92 -30 -176 -106 -220 -201 -24 -51 -28 -73 -28 -145 0
-110 32 -186 111 -260 82 -77 128 -95 249 -95 120 0 171 21 250 100 179 178
133 466 -93 577 -56 28 -79 33 -147 35 -46 2 -97 -3 -122 -11z m193 -155 c50
-23 112 -93 120 -138 20 -106 -22 -195 -113 -239 -46 -23 -62 -26 -110 -21
-109 11 -188 98 -187 207 1 152 154 253 290 191z"/>
<path d="M2480 1660 c-11 -11 -22 -30 -25 -42 -3 -13 -5 -157 -3 -321 l3 -299
24 -19 c30 -24 72 -24 102 0 20 16 24 30 29 107 l5 88 89 -102 c92 -105 118
-122 165 -106 31 11 55 56 46 85 -4 12 -40 58 -81 104 -41 46 -74 86 -74 89 0
3 7 6 16 6 8 0 39 24 68 53 39 39 55 64 64 99 26 101 -22 202 -117 251 -50 25
-64 27 -173 27 -104 0 -120 -2 -138 -20z m254 -151 c27 -22 34 -56 16 -89 -11
-20 -66 -40 -112 -40 l-28 0 0 75 0 75 49 0 c34 0 56 -6 75 -21z"/>
<path d="M3035 1655 l-25 -24 0 -309 c0 -298 1 -310 21 -336 23 -30 72 -35
105 -12 16 12 20 30 24 112 l5 97 98 -112 c89 -101 101 -111 132 -111 45 0 75
29 75 73 0 26 -14 49 -75 117 -41 47 -74 88 -75 91 0 4 13 12 30 19 40 17 95
79 110 125 7 20 10 64 8 96 -6 76 -45 133 -118 172 -49 25 -61 27 -172 27
-113 0 -120 -1 -143 -25z m260 -150 c59 -58 8 -125 -96 -125 -23 0 -27 5 -33
38 -3 20 -6 54 -6 75 l0 37 55 0 c46 0 60 -4 80 -25z"/>
<path d="M3561 1654 c-12 -15 -21 -37 -21 -49 0 -12 41 -84 90 -160 l90 -137
0 -148 c0 -134 2 -150 21 -174 23 -30 72 -35 104 -12 21 15 33 103 34 259 l1
78 84 129 c46 70 87 137 91 149 9 28 -20 79 -50 87 -51 13 -71 -2 -136 -105
-35 -55 -66 -100 -69 -100 -3 -1 -27 34 -55 76 -76 117 -92 133 -130 133 -24
0 -39 -7 -54 -26z"/>
</g>
</svg>
